{"title":"The Girl with the Dragon Tattoo (PSP + Ipod touch + Zune)","uid":5656332,"size":609125914,"categoryP":"video","categoryS":"handheld","magnet":"?xt=urn:btih:8ec68a41d6dbe55b49f188a07ccce407e45ca22b&amp;dn=The+Girl+with+the+Dragon+Tattoo+%28PSP+%2B+Ipod+touch+%2B+Zune%29&amp;tr=udp%3A%2F%2Ftracker.openbittorrent.com%3A80&amp;tr=udp%3A%2F%2Fopen.demonii.com%3A1337&amp;tr=udp%3A%2F%2Ftracker.coppersurfer.tk%3A6969&amp;tr=udp%3A%2F%2Fexodus.desync.com%3A6969","seeders":0,"leechers":0,"uploader":"on.off.on","files":-1,"time":1277772840,"description":"The girl with the dragon tattoo - Swedish &lt;a href=&quot;\nhttp://www.imdb.com/title/tt1132620/&quot; rel=&quot;nofollow&quot; target=&quot;_NEW&quot;&gt;\nhttp://www.imdb.com/title/tt1132620/&lt;/a&gt;\n\nSource  :\n\nafn-man.som.hatar.kvinnor-1080p\n\nInfo    :\n\nID                               : 1\nFormat                           : AVC\nFormat/Info                      : Advanced Video Codec\nFormat profile                   : &lt;a class=&quot;__cf_email__&quot; href=&quot;/cdn-cgi/l/email-protection&quot; data-cfemail=&quot;db99baa8beb7b2b5be9b97e9f5eb&quot;&gt;[email&amp;#160;protected]&lt;/a&gt;&lt;script cf-hash='f9e31' type=&quot;text/javascript&quot;&gt;\n/* &lt;![CDATA[ */!function(){try{var t=&quot;currentScript&quot;in document?document.currentScript:function(){for(var t=document.getElementsByTagName(&quot;script&quot;),e=t.length;e--;)if(t[e].getAttribute(&quot;cf-hash&quot;))return t[e]}();if(t&amp;&amp;t.previousSibling){var e,r,n,i,c=t.previousSibling,a=c.getAttribute(&quot;data-cfemail&quot;);if(a){for(e=&quot;&quot;,r=parseInt(a.substr(0,2),16),n=2;a.length-n;n+=2)i=parseInt(a.substr(n,2),16)^r,e+=String.fromCharCode(i);e=document.createTextNode(e),c.parentNode.replaceChild(e,c)}}}catch(u){}}();/* ]]&gt; */&lt;/script&gt;\nFormat settings, CABAC           : No\nFormat settings, ReFrames        : 3 frames\nCodec ID                         : avc1\nCodec ID/Info                    : Advanced Video Coding\nDuration                         : 2h 32mn\nBit rate mode                    : Variable\nBit rate                         : 400 Kbps\nWidth                            : 480 pixels\nHeight                           : 208 pixels\nDisplay aspect ratio             : 2.35:1\nFrame rate mode                  : Variable\nFrame rate                       : 24.000 fps\nMinimum frame rate               : 23.810 fps\nMaximum frame rate               : 24.390 fps\nColor space                      : YUV\nChroma subsampling               : 4:2:0\nBit depth                        : 8 bits\nScan type                        : Progressive\nBits/(Pixel*Frame)               : 0.167\nStream size                      : 436 MiB (75%)\nWriting library                  : x264 core 79\n\nID                               : 2\nFormat                           : AAC\nFormat/Info                      : Advanced Audio Codec\nFormat version                   : Version 4\nFormat profile                   : LC\nFormat settings, SBR             : No\nCodec ID                         : 40\nDuration                         : 2h 32mn\nBit rate mode                    : Variable\nBit rate                         : 128 Kbps\nMaximum bit rate                 : 184 Kbps\nChannel(s)                       : 2 channels\nChannel positions                : Front: L R\nSampling rate                    : 48.0 KHz\nStream size                      : 140 MiB (24%)\nLanguage                         : Swedish\n\nScreens :  &lt;a href=&quot;\nhttp://img807.imageshack.us/img807/7416/vlcsnap00001.png&quot; rel=&quot;nofollow&quot; target=&quot;_NEW&quot;&gt;\nhttp://img807.imageshack.us/img807/7416/vlcsnap00001.png&lt;/a&gt; &lt;a href=&quot;\nhttp://img39.imageshack.us/img39/5479/vlcsnap00002e.png&quot; rel=&quot;nofollow&quot; target=&quot;_NEW&quot;&gt;\nhttp://img39.imageshack.us/img39/5479/vlcsnap00002e.png&lt;/a&gt; &lt;a href=&quot;\nhttp://img228.imageshack.us/img228/1374/vlcsnap00003u.png&quot; rel=&quot;nofollow&quot; target=&quot;_NEW&quot;&gt;\nhttp://img228.imageshack.us/img228/1374/vlcsnap00003u.png&lt;/a&gt; &lt;a href=&quot;\nhttp://img59.imageshack.us/img59/9803/vlcsnap00004i.png&quot; rel=&quot;nofollow&quot; target=&quot;_NEW&quot;&gt;\nhttp://img59.imageshack.us/img59/9803/vlcsnap00004i.png&lt;/a&gt; &lt;a href=&quot;\nhttp://img38.imageshack.us/img38/6572/vlcsnap00005c.png&quot; rel=&quot;nofollow&quot; target=&quot;_NEW&quot;&gt;\nhttp://img38.imageshack.us/img38/6572/vlcsnap00005c.png&lt;/a&gt; &lt;a href=&quot;\nhttp://img97.imageshack.us/img97/6751/vlcsnap00006x.png&quot; rel=&quot;nofollow&quot; target=&quot;_NEW&quot;&gt;\nhttp://img97.imageshack.us/img97/6751/vlcsnap00006x.png&lt;/a&gt; &lt;a href=&quot;\nhttp://img517.imageshack.us/img517/1359/vlcsnap00007k.png&quot; rel=&quot;nofollow&quot; target=&quot;_NEW&quot;&gt;\nhttp://img517.imageshack.us/img517/1359/vlcsnap00007k.png&lt;/a&gt; &lt;a href=&quot;\nhttp://img156.imageshack.us/img156/8698/vlcsnap00008x.png&quot; rel=&quot;nofollow&quot; target=&quot;_NEW&quot;&gt;\nhttp://img156.imageshack.us/img156/8698/vlcsnap00008x.png&lt;/a&gt;\n\n\n\nTHIS MOVIE IS IN SWEDISH WITH ENGLISH SUBS! REASON? \nTHE DUBBED VERSION IS A SHAME FOR THE ENTIRE MOVIE!!!!\n\n\n\n\n\nPLEASE LET THE TORRENT SEED AND SHARE IT WITH ALL YOU KNOW!\n\nLet me know what I can do to be your trusted source of Handheld videos. &lt;a href=&quot;\nhttp://thepiratebay.se/user/on.off.on/&quot; rel=&quot;nofollow&quot; target=&quot;_NEW&quot;&gt;\nhttp://thepiratebay.se/user/on.off.on/&lt;/a&gt; -OOO","torrent":{"xt":"urn:btih:8ec68a41d6dbe55b49f188a07ccce407e45ca22b","amp;dn":"The+Girl+with+the+Dragon+Tattoo+%28PSP+%2B+Ipod+touch+%2B+Zune%29","amp;tr":["udp%3A%2F%2Ftracker.openbittorrent.com%3A80","udp%3A%2F%2Fopen.demonii.com%3A1337","udp%3A%2F%2Ftracker.coppersurfer.tk%3A6969","udp%3A%2F%2Fexodus.desync.com%3A6969"],"infoHash":"8ec68a41d6dbe55b49f188a07ccce407e45ca22b","infoHashBuffer":{"type":"Buffer","data":[142,198,138,65,214,219,229,91,73,241,136,160,124,204,228,7,228,92,162,43]},"announce":[],"urlList":[]}}